<svg id="Laag_1" data-name="Laag 1" xmlns="http://www.w3.org/2000/svg" viewBox="0 0 262 210.9"><defs><style>.cls-1{fill:#090909;stroke:#231f20;stroke-miterlimit:10;}.cls-2,.cls-6{font-size:20px;}.cls-2,.cls-5{font-family:StencilStd, Stencil Std;}.cls-3{letter-spacing:-0.06em;}.cls-4{letter-spacing:0em;}.cls-5{font-size:26px;}.cls-6{font-family:MeieScript-Regular, Meie Script;}</style></defs><title>Celtic_Symbol</title><path class="cls-1" d="M313.66,266.29l12-2.84s8.11-18.85,24.19-27.06c0,0,51.32,40.57,3.29,90.91,0,0,9.17,6.27,10,5,0,0,24.24-21.68,20.53-54.1s-27.4-50.72-33.17-51.08C341.27,226.53,315.69,249.57,313.66,266.29Z" transform="translate(-217 -226.61)"/><path class="cls-1" d="M395.26,288.18l-2.76,12.06s13.3,15.62,13.53,33.68c0,0-59.12,28-82.94-37.36,0,0-9.69,5.43-8.93,6.74,0,0,8.68,31.35,39.39,42.4s57.63-2.11,60.51-7.11C418.66,330.56,409.35,297.41,395.26,288.18Z" transform="translate(-217 -226.61)"/><path class="cls-1" d="M333.5,345.51l-9-8.45s-20.19,3.72-35.94-5.14c0,0,5.33-65.2,73.85-53.12,0,0,.14-11.1-1.38-11.1,0,0-31.47-8.17-56.41,12.89s-27,51-24.13,55.94C285.13,344.56,318.5,353.09,333.5,345.51Z" transform="translate(-217 -226.61)"/><text class="cls-2" transform="translate(0 61.57)">ES<tspan class="cls-3" x="25.78" y="0">T</tspan><tspan class="cls-4" x="37.9" y="0">.</tspan></text><text class="cls-2" transform="translate(207 61.57)">2018</text><text class="cls-5" transform="translate(56.16 172.06) rotate(-7.21)">W</text><text class="cls-5" transform="matrix(1, -0.1, 0.1, 1, 79.81, 169.18)"> </text><text class="cls-5" transform="matrix(1, -0.07, 0.07, 1, 88.49, 168.29)">s</text><text class="cls-5" transform="translate(104.72 167.07) rotate(-2.33)">p</text><text class="cls-5" transform="translate(123.13 166.37) rotate(-0.63)">i</text><text class="cls-5" transform="translate(134.62 166.16) rotate(1.26)">r</text><text class="cls-5" transform="translate(154.84 166.68) rotate(3.19)">i</text><text class="cls-5" transform="matrix(1, 0.09, -0.09, 1, 166.31, 167.27)">t</text><text class="cls-5" transform="matrix(0.99, 0.12, -0.12, 0.99, 182.94, 168.71)">s</text><text class="cls-6" x="-217" y="-226.61"><tspan x="8" y="203.28">tha spiorad aig a h-uile duine</tspan></text></svg>