<?xml version="1.0" encoding="utf-8"?>
<!-- Generator: Adobe Illustrator 23.0.1, SVG Export Plug-In . SVG Version: 6.00 Build 0)  -->
<svg version="1.1" id="Laag_1" xmlns="http://www.w3.org/2000/svg" xmlns:xlink="http://www.w3.org/1999/xlink" x="0px" y="0px"
	 viewBox="0 0 303.61 223.6" style="enable-background:new 0 0 303.61 223.6;" xml:space="preserve">
<style type="text/css">
	.st0{fill:#090909;stroke:#231F20;stroke-miterlimit:10;}
	.st1{fill:none;}
	.st2{font-family:'StencilStd';}
	.st3{font-size:24px;}
</style>
<g>
	<path class="st0" d="M109.16,45.59l12.05-2.85c0,0,8.1-18.85,24.19-27.06c0,0,51.32,40.57,3.29,90.91c0,0,9.17,6.27,10.01,5.01
		c0,0,24.25-21.67,20.53-54.1c-3.71-32.43-27.45-50.72-33.2-51.09C136.77,5.83,111.19,28.87,109.16,45.59z"/>
	<path class="st0" d="M190.76,67.48l-2.79,12.06c0,0,13.3,15.62,13.53,33.68c0,0-59.12,28.01-82.94-37.36c0,0-9.68,5.44-8.93,6.75
		c0,0,8.68,31.34,39.39,42.39s57.64-2.11,60.51-7.1C214.16,109.86,204.85,76.71,190.76,67.48z"/>
	<path class="st0" d="M129.03,124.81l-9.05-8.45c0,0-20.18,3.7-35.93-5.14c0,0,5.33-65.2,73.85-53.12c0,0,0.14-11.11-1.37-11.11
		c0,0-31.48-8.17-56.41,12.89s-27.01,50.96-24.13,55.95C80.63,123.86,113.99,132.39,129.03,124.81z"/>
</g>
<rect x="1.36" y="67.48" class="st1" width="55.06" height="48.31"/>
<text transform="matrix(1 0 0 1 1.3624 85.4311)"><tspan x="0" y="0" class="st2 st3">EST</tspan><tspan x="0" y="28.8" class="st2 st3">.</tspan></text>
<text transform="matrix(1 0 0 1 230.5761 86.5953)" class="st2 st3">2018</text>
<path id="SVGID_x5F_1_x5F_" class="st1" d="M-7.13,193.26c36.2-9.31,85.34-18.15,143.82-17.98c56.91,0.17,104.84,8.82,140.45,17.98"
	/>
<text><textPath  xlink:href="#SVGID_x5F_1_x5F_" startOffset="27.1729%">
<tspan  class="st2" style="font-size:29px;">W Spirits </tspan></textPath>
</text>
<path id="SVGID_x5F_2_x5F_" class="st1" d="M7.42,213.48h288.76"/>
<text><textPath  xlink:href="#SVGID_x5F_2_x5F_" startOffset="19.4397%">
<tspan  class="st3" style="font-family:'MeieScript-Regular'; letter-spacing:-25;">tha spiorad aig a h-uile duine</tspan></textPath>
</text>
</svg>
